<?xml version="1.0" standalone="no"?>
<!DOCTYPE svg PUBLIC "-//W3C//DTD SVG 20010904//EN"
 "http://www.w3.org/TR/2001/REC-SVG-20010904/DTD/svg10.dtd">
<svg version="1.0" xmlns="http://www.w3.org/2000/svg"
 width="500.000000pt" height="500.000000pt" viewBox="0 0 500.000000 500.000000"
 preserveAspectRatio="xMidYMid meet">

<g transform="translate(0.000000,500.000000) scale(0.100000,-0.100000)"
fill="#000000" stroke="none">
<path d="M1050 4716 c0 -10 11 -31 25 -48 22 -26 32 -48 22 -48 -2 0 -39 18
-83 41 -71 37 -84 41 -130 36 -71 -7 -149 -48 -228 -119 -72 -65 -91 -100
-133 -238 -32 -108 -36 -238 -9 -320 19 -55 85 -158 125 -194 33 -30 25 -5
-21 65 -66 101 -78 143 -78 265 0 170 40 289 131 389 61 66 136 105 216 112
50 4 65 1 106 -22 62 -35 158 -124 182 -168 18 -34 18 -36 -3 -84 -18 -42 -20
-56 -11 -88 17 -62 -2 -106 -78 -181 -37 -35 -70 -64 -74 -64 -4 0 -23 -22
-43 -49 -43 -58 -54 -118 -37 -188 11 -43 57 -120 67 -111 2 2 -3 42 -12 88
-23 137 -5 186 102 270 77 60 100 95 115 173 6 31 13 57 16 57 16 0 143 -73
162 -94 14 -14 32 -26 41 -26 9 0 81 -41 160 -90 80 -50 161 -95 181 -100 35
-10 85 -40 149 -91 28 -23 31 -29 21 -48 -16 -28 -4 -48 61 -105 l53 -46 -24
-44 c-14 -25 -21 -50 -18 -61 10 -25 30 -13 40 26 5 19 15 41 23 49 12 12 14
8 14 -33 0 -35 4 -47 15 -47 9 0 15 9 15 24 0 14 4 27 9 30 13 8 71 -86 71
-114 0 -13 -18 -46 -40 -75 -62 -80 -73 -116 -72 -230 0 -55 7 -144 16 -197
18 -110 20 -166 7 -187 -8 -12 -14 -12 -40 -2 -17 7 -35 19 -42 27 -6 7 -17
65 -24 129 -19 166 -33 176 -115 89 -29 -30 -69 -67 -90 -80 -45 -30 -55 -50
-38 -72 19 -23 77 -75 127 -113 93 -71 48 -71 -82 1 -42 23 -81 39 -87 35 -11
-7 -13 -279 -2 -308 7 -16 12 -15 55 13 48 30 103 50 96 34 -2 -5 -17 -34 -33
-64 -41 -77 -49 -202 -16 -277 12 -28 35 -63 51 -79 24 -23 29 -36 29 -77 0
-27 -7 -76 -16 -109 -23 -90 -22 -132 4 -168 18 -23 20 -34 12 -49 -17 -33
-11 -51 24 -67 28 -14 35 -23 40 -58 3 -22 9 -56 12 -74 6 -29 4 -32 -19 -32
-17 0 -37 13 -59 37 -104 116 -129 132 -182 119 -50 -12 -75 -168 -40 -251 13
-31 14 -67 8 -231 -5 -129 -3 -198 3 -206 6 -7 14 -36 18 -64 9 -73 53 -152
103 -191 37 -28 52 -33 97 -33 90 0 110 34 108 182 -1 99 0 108 18 108 26 0
38 -28 49 -113 5 -40 12 -80 15 -89 10 -24 86 -49 198 -63 54 -7 103 -17 108
-22 7 -7 -5 -29 -33 -62 -128 -156 -150 -209 -106 -251 41 -38 170 -17 293 49
241 129 403 259 502 402 54 78 58 88 58 141 0 67 -24 107 -75 124 -47 16 -96
2 -139 -39 -62 -59 -94 -70 -112 -36 -9 17 -7 28 6 53 9 17 26 81 39 143 27
134 46 168 84 157 15 -5 56 -9 92 -9 l65 0 8 40 c13 60 21 69 61 76 40 7 76
34 76 58 0 9 -12 36 -26 61 -39 67 -41 137 -9 312 34 184 29 258 -24 420 -8
24 -5 29 38 57 138 89 231 250 231 403 0 71 -10 98 -60 161 -47 58 -50 77 -14
77 14 0 58 13 97 29 96 38 134 46 152 31 23 -19 19 -25 -35 -54 -58 -32 -64
-39 -51 -65 9 -15 6 -22 -14 -35 -24 -16 -34 -46 -16 -46 5 0 23 11 39 25 28
24 30 24 46 6 21 -23 20 -28 -4 -34 -12 -3 -20 -14 -20 -26 0 -18 -6 -21 -39
-21 -44 0 -82 -29 -40 -31 48 -2 75 3 104 21 l31 19 64 -41 c126 -80 469 -285
534 -319 52 -27 69 -32 83 -23 21 13 63 72 63 88 -1 14 -243 167 -365 232 -49
26 -91 51 -93 56 -2 4 -20 17 -40 29 -76 45 -112 72 -112 85 0 7 8 26 18 44
17 31 17 31 -11 56 -15 13 -36 24 -47 24 -39 0 -49 10 -43 45 4 28 1 36 -21
50 -17 11 -36 15 -55 12 -21 -4 -37 0 -54 13 -30 24 -75 25 -124 5 -50 -21
-73 -19 -116 11 -21 14 -113 71 -205 126 -92 55 -182 111 -201 124 -23 15 -43
21 -61 18 -20 -5 -28 -1 -36 18 -15 31 -4 65 44 135 59 86 74 141 97 354 l6
56 52 -14 c79 -20 144 -16 205 12 43 20 56 32 72 67 27 59 25 104 -6 167 -32
63 -92 106 -161 117 -67 10 -113 -8 -167 -66 -26 -28 -65 -62 -87 -76 -46 -28
-44 -47 3 -34 32 10 48 21 108 77 50 45 101 65 151 57 128 -21 176 -208 71
-279 -48 -33 -98 -32 -202 1 -45 14 -84 23 -87 21 -3 -3 -8 -68 -13 -144 -8
-157 -16 -182 -105 -342 l-57 -101 61 -66 c34 -35 61 -71 61 -78 0 -19 -33
-45 -71 -56 -40 -12 -109 -1 -189 29 -72 27 -291 148 -308 169 -7 9 -33 48
-58 86 l-46 69 38 38 c40 41 64 50 64 23 0 -8 -14 -20 -31 -26 -19 -7 -29 -16
-27 -27 2 -12 19 -17 73 -22 76 -7 136 5 159 30 19 21 76 166 76 192 0 44 -60
118 -108 133 -16 5 -17 15 -14 73 4 59 -10 204 -24 256 -9 30 13 19 35 -18 22
-38 38 -44 48 -19 3 9 -5 26 -21 43 -69 72 13 67 103 -7 42 -34 44 -55 2 -33
-11 6 -22 7 -25 2 -7 -10 13 -28 63 -56 33 -19 36 -24 33 -60 -2 -22 -10 -44
-18 -48 -19 -11 -18 -37 1 -37 8 0 29 -23 47 -51 33 -55 87 -88 141 -89 27 0
28 -2 22 -30 -7 -30 0 -36 23 -22 15 10 32 66 32 109 0 26 -4 33 -20 33 -14 0
-20 -7 -20 -23 0 -13 -5 -28 -12 -35 -20 -20 -74 -14 -103 11 -26 22 -27 24
-12 59 14 33 20 37 86 53 63 15 102 37 89 50 -2 3 -35 -4 -73 -15 -82 -23
-168 -22 -173 3 -2 9 2 25 8 37 10 18 17 20 56 14 51 -7 94 14 94 46 0 23 -1
24 -32 9 -20 -9 -35 -2 -113 49 -50 32 -97 67 -105 77 -13 16 -11 17 39 14 37
-3 55 0 58 9 3 8 -10 12 -49 12 -50 0 -95 16 -73 26 46 20 92 54 105 77 13 24
13 30 0 54 -9 15 -27 33 -40 40 -38 19 -166 15 -230 -7 -50 -17 -57 -17 -72
-3 -9 8 -36 18 -60 20 -56 6 -94 -21 -105 -76 -6 -29 -19 -47 -52 -72 -25 -19
-55 -54 -68 -79 -13 -25 -32 -52 -43 -60 -26 -21 -70 -108 -70 -139 0 -15 5
-32 11 -38 10 -10 -3 -42 -36 -91 -6 -9 -52 23 -60 41 -9 18 -242 163 -340
211 -17 8 -55 31 -84 50 -29 20 -64 39 -77 42 -32 8 -32 42 0 53 24 10 40 34
29 45 -11 11 -21 7 -49 -19 -15 -14 -30 -25 -33 -25 -3 0 -27 42 -53 93 -49
95 -108 168 -108 133z m1152 -108 c30 -25 29 -45 -4 -52 -61 -12 -80 -8 -76
16 2 12 14 28 28 35 31 16 33 16 52 1z m348 -13 c16 -19 4 -52 -26 -72 -21
-14 -30 -14 -64 -3 -21 7 -46 10 -54 7 -18 -7 -21 -33 -6 -42 22 -14 8 -35
-31 -45 -40 -11 -41 -11 -74 27 -63 71 -39 105 87 128 99 18 153 18 168 0z
m-424 -162 c13 -123 -25 -233 -111 -319 -62 -63 -133 -103 -146 -82 -20 31 13
98 48 98 19 0 16 24 -8 54 -26 33 -20 77 15 120 18 22 30 28 50 24 17 -4 31 1
43 14 17 19 16 20 -6 37 -29 22 -20 43 36 89 59 49 70 44 79 -35z m293 -469
c25 -21 31 -33 31 -65 0 -40 -14 -51 -37 -28 -15 15 -51 2 -58 -20 -8 -27 4
-51 31 -62 37 -14 30 -55 -13 -78 -35 -18 -53 -14 -53 13 0 13 -9 35 -20 49
l-21 26 21 38 c11 21 31 64 45 96 13 31 28 57 34 57 5 0 23 -12 40 -26z m-9
-134 c0 -5 -7 -10 -16 -10 -8 0 -12 5 -9 10 3 6 10 10 16 10 5 0 9 -4 9 -10z
m-187 -445 c21 -5 26 -9 15 -12 -24 -6 -58 15 -57 35 1 15 2 15 6 1 2 -9 18
-20 36 -24z m47 31 c0 -2 -7 -7 -16 -10 -8 -3 -12 -2 -9 4 6 10 25 14 25 6z
m56 -74 c-6 -6 -56 10 -56 18 0 5 13 3 30 -3 16 -6 28 -13 26 -15z m204 -61
c0 -5 -7 -12 -16 -15 -14 -5 -15 -4 -4 9 14 17 20 19 20 6z m40 -20 c0 -6 -4
-12 -8 -15 -5 -3 -9 1 -9 9 0 8 4 15 9 15 4 0 8 -4 8 -9z m-35 -11 c-3 -5 -11
-10 -16 -10 -6 0 -7 5 -4 10 3 6 11 10 16 10 6 0 7 -4 4 -10z m119 -39 c4 -5
-3 -7 -14 -4 -23 6 -26 13 -6 13 8 0 17 -4 20 -9z m841 -11 c17 -28 -35 -80
-80 -80 -21 0 -19 33 6 64 21 26 62 35 74 16z m-845 -15 c11 -13 10 -14 -4 -9
-9 3 -16 10 -16 15 0 13 6 11 20 -6z m50 -9 c0 -2 -7 -7 -16 -10 -8 -3 -12 -2
-9 4 6 10 25 14 25 6z m28 -31 c-3 -3 -9 2 -12 12 -6 14 -5 15 5 6 7 -7 10
-15 7 -18z m213 2 c-10 -9 -11 -8 -5 6 3 10 9 15 12 12 3 -3 0 -11 -7 -18z
m669 13 c0 -5 -14 -10 -31 -10 -17 0 -28 4 -24 10 3 6 17 10 31 10 13 0 24 -4
24 -10z m-755 -70 c-3 -5 -14 -10 -23 -10 -15 0 -15 2 -2 10 20 13 33 13 25 0z
m862 -36 c8 -22 -6 -44 -47 -71 -48 -33 -76 -30 -84 8 -9 49 23 77 92 78 21 1
35 -5 39 -15z m-462 -42 c5 -13 2 -13 -15 3 -14 13 -20 14 -20 5 0 -7 -3 -11
-6 -7 -3 3 -3 10 0 16 9 13 33 4 41 -17z m-1335 -2 c0 -5 -2 -10 -4 -10 -3 0
-8 5 -11 10 -3 6 -1 10 4 10 6 0 11 -4 11 -10z m861 -17 c-12 -20 -14 -14 -5
12 4 9 9 14 11 11 3 -2 0 -13 -6 -23z m-908 -3 c-10 -11 -19 -20 -21 -20 -1 0
2 9 8 20 6 11 15 20 20 20 6 0 2 -9 -7 -20z m1427 -15 c11 -13 10 -14 -4 -9
-9 3 -16 10 -16 15 0 13 6 11 20 -6z m-1383 -27 c-3 -8 -6 -5 -6 6 -1 11 2 17
5 13 3 -3 4 -12 1 -19z m1404 -21 c-10 -9 -11 -8 -5 6 3 10 9 15 12 12 3 -3 0
-11 -7 -18z m-1484 -19 c2 -17 0 -19 -7 -8 -5 8 -6 18 -4 22 8 12 10 10 11
-14z m41 0 c7 -9 5 -17 -6 -28 -14 -13 -15 -12 -9 5 5 11 3 22 -5 27 -8 5 -9
8 -2 8 6 0 16 -6 22 -12z m78 -14 c-4 -9 -9 -15 -11 -12 -3 3 -3 13 1 22 4 9
9 15 11 12 3 -3 3 -13 -1 -22z m24 -59 c0 -5 -5 -3 -10 5 -5 8 -10 20 -10 25
0 6 5 3 10 -5 5 -8 10 -19 10 -25z m572 3 c1 -18 1 -45 0 -60 -2 -22 3 -28 28
-33 34 -7 41 -38 13 -50 -10 -4 -72 -10 -137 -13 -108 -4 -120 -3 -133 13 -7
11 -13 31 -13 46 0 27 2 28 55 31 75 4 70 22 -7 28 -59 5 -63 7 -66 32 -4 33
3 35 146 37 l112 1 2 -32z m815 -10 c-3 -8 -6 -5 -6 6 -1 11 2 17 5 13 3 -3 4
-12 1 -19z m-687 -83 c0 -8 -4 -15 -10 -15 -5 0 -10 7 -10 15 0 8 5 15 10 15
6 0 10 -7 10 -15z m550 11 c0 -3 -4 -8 -10 -11 -5 -3 -10 -1 -10 4 0 6 5 11
10 11 6 0 10 -2 10 -4z m-1423 -28 c-3 -8 -6 -5 -6 6 -1 11 2 17 5 13 3 -3 4
-12 1 -19z m1533 12 c0 -5 -5 -10 -11 -10 -5 0 -7 5 -4 10 3 6 8 10 11 10 2 0
4 -4 4 -10z m-1453 -16 c-3 -3 -12 -4 -19 -1 -8 3 -5 6 6 6 11 1 17 -2 13 -5z
m1303 -9 c-7 -8 -18 -15 -24 -15 -6 0 -2 7 8 15 25 19 32 19 16 0z m-1145 -5
c3 -5 1 -10 -4 -10 -6 0 -11 5 -11 10 0 6 2 10 4 10 3 0 8 -4 11 -10z m174 6
c-11 -9 -69 -15 -64 -6 3 6 20 10 37 10 17 0 29 -2 27 -4z m451 -16 c0 -5 -5
-10 -11 -10 -5 0 -7 5 -4 10 3 6 8 10 11 10 2 0 4 -4 4 -10z m610 2 c0 -4 -10
-13 -22 -21 -23 -14 -23 -14 -4 8 20 22 26 25 26 13z m54 -36 c-3 -15 -8 -25
-11 -23 -2 3 -1 17 3 31 3 15 8 25 11 23 2 -3 1 -17 -3 -31z m-1085 11 c8 -10
7 -14 -2 -14 -8 0 -14 6 -14 14 0 7 1 13 2 13 2 0 8 -6 14 -13z m-321 -9 c-2
-6 -10 -13 -16 -14 -9 -2 -9 -1 -1 3 8 4 7 8 -2 14 -11 7 -10 9 4 9 10 0 17
-5 15 -12z m929 6 c-3 -3 -12 -4 -19 -1 -8 3 -5 6 6 6 11 1 17 -2 13 -5z
m-979 -11 c-10 -2 -26 -2 -35 0 -10 3 -2 5 17 5 19 0 27 -2 18 -5z m288 -24
c3 -6 -5 -3 -20 6 -14 10 -26 19 -26 22 0 7 39 -17 46 -28z m470 12 c-3 -5
-17 -11 -32 -14 -29 -5 -20 9 11 16 11 3 21 5 23 6 2 0 1 -3 -2 -8z m451 3
c-3 -3 -12 -4 -19 -1 -8 3 -5 6 6 6 11 1 17 -2 13 -5z m-1252 -19 c-35 -16
-75 -19 -75 -6 0 5 8 7 18 5 9 -3 28 -1 42 5 38 15 49 11 15 -4z m1040 -5 c-3
-5 -11 -10 -16 -10 -6 0 -7 5 -4 10 3 6 11 10 16 10 6 0 7 -4 4 -10z m160 0
c-3 -5 -13 -10 -21 -10 -8 0 -12 5 -9 10 3 6 13 10 21 10 8 0 12 -4 9 -10z
m163 -4 c-7 -8 -15 -12 -17 -11 -5 6 10 25 20 25 5 0 4 -6 -3 -14z m102 -33
c-11 -17 -11 -17 -6 0 3 10 7 26 7 35 1 15 2 15 6 0 2 -10 -1 -25 -7 -35z
m-1001 0 c-1 -33 -2 -35 -8 -13 -4 14 -6 31 -3 38 8 22 12 13 11 -25z m215
-28 c3 -27 8 -104 11 -170 3 -66 9 -138 13 -160 7 -38 9 -40 51 -46 33 -4 52
-14 73 -38 35 -39 39 -91 7 -91 -47 0 -61 -18 -58 -73 2 -29 0 -58 -4 -64 -16
-25 -57 -13 -102 28 l-44 41 -12 -26 c-14 -30 -34 -34 -48 -8 -6 10 -21 17
-38 17 -24 0 -30 6 -43 43 -14 40 -13 46 14 123 31 87 30 70 10 340 -10 134
-10 134 85 134 l80 1 5 -51z m103 49 c-3 -3 -12 -4 -19 -1 -8 3 -5 6 6 6 11 1
17 -2 13 -5z m621 -55 c-2 -15 -11 -25 -23 -27 -19 -3 -19 -2 -2 9 14 8 17 18
12 37 -5 20 -4 24 5 16 6 -7 10 -22 8 -35z m-1051 5 c-3 -3 -12 -4 -19 -1 -8
3 -5 6 6 6 11 1 17 -2 13 -5z m893 -3 c0 -5 -7 -12 -16 -15 -14 -5 -15 -4 -4
9 14 17 20 19 20 6z m-853 -17 c-3 -3 -12 -4 -19 -1 -8 3 -5 6 6 6 11 1 17 -2
13 -5z m943 -4 c0 -5 -4 -10 -10 -10 -5 0 -10 5 -10 10 0 6 5 10 10 10 6 0 10
-4 10 -10z m-953 -16 c-3 -3 -12 -4 -19 -1 -8 3 -5 6 6 6 11 1 17 -2 13 -5z
m983 -19 c10 -13 11 -18 1 -28 -10 -9 -11 -8 -6 5 5 13 0 21 -16 27 -16 6 -18
10 -8 10 9 1 22 -6 29 -14z m45 5 c-3 -5 -12 -10 -18 -10 -7 0 -6 4 3 10 19
12 23 12 15 0z m-605 -4 c0 -3 -4 -8 -10 -11 -5 -3 -10 -1 -10 4 0 6 5 11 10
11 6 0 10 -2 10 -4z m440 -6 c0 -5 -5 -10 -11 -10 -5 0 -7 5 -4 10 3 6 8 10
11 10 2 0 4 -4 4 -10z m-1200 -55 c0 -5 -5 -3 -10 5 -5 8 -10 20 -10 25 0 6 5
3 10 -5 5 -8 10 -19 10 -25z m955 15 c4 -7 -3 -8 -22 -4 -38 9 -42 14 -10 14
14 0 29 -5 32 -10z m-141 -39 c4 -5 -3 -7 -14 -4 -23 6 -26 13 -6 13 8 0 17
-4 20 -9z m243 -7 c-3 -3 -12 -4 -19 -1 -8 3 -5 6 6 6 11 1 17 -2 13 -5z
m-1100 -41 c-3 -10 -5 -4 -5 12 0 17 2 24 5 18 2 -7 2 -21 0 -30z m460 -5 c-3
-7 -5 -2 -5 12 0 14 2 19 5 13 2 -7 2 -19 0 -25z m533 11 c0 -4 -7 -6 -15 -3
-8 4 -15 10 -15 15 0 4 7 6 15 3 8 -4 15 -10 15 -15z m268 -34 c-3 -3 -9 2
-12 12 -6 14 -5 15 5 6 7 -7 10 -15 7 -18z m-105 -2 c-7 -2 -19 -2 -25 0 -7 3
-2 5 12 5 14 0 19 -2 13 -5z m-166 -39 c-3 -3 -12 -4 -19 -1 -8 3 -5 6 6 6 11
1 17 -2 13 -5z m-240 -51 c-3 -10 -5 -2 -5 17 0 19 2 27 5 18 2 -10 2 -26 0
-35z m34 24 c-10 -9 -11 -8 -5 6 3 10 9 15 12 12 3 -3 0 -11 -7 -18z m479 19
c0 -3 -4 -8 -10 -11 -5 -3 -10 -1 -10 4 0 6 5 11 10 11 6 0 10 -2 10 -4z
m-133 -12 c-3 -3 -12 -4 -19 -1 -8 3 -5 6 6 6 11 1 17 -2 13 -5z m-1067 -44
c0 -5 -4 -10 -10 -10 -5 0 -10 5 -10 10 0 6 5 10 10 10 6 0 10 -4 10 -10z m34
-42 c7 -5 5 -8 -6 -8 -13 0 -18 7 -17 28 1 21 2 22 6 7 3 -11 10 -23 17 -27z
m766 -13 c14 -19 14 -19 -2 -6 -10 7 -18 18 -18 24 0 6 1 8 3 6 1 -2 9 -13 17
-24z m-735 -25 c3 -5 1 -10 -4 -10 -6 0 -11 5 -11 10 0 6 2 10 4 10 3 0 8 -4
11 -10z m822 -72 c-3 -7 -5 -2 -5 12 0 14 2 19 5 13 2 -7 2 -19 0 -25z m-567
18 c0 -2 -7 -7 -16 -10 -8 -3 -12 -2 -9 4 6 10 25 14 25 6z m927 -58 c-2 -13
-4 -5 -4 17 -1 22 1 32 4 23 2 -10 2 -28 0 -40z m-957 18 c0 -2 -7 -7 -16 -10
-8 -3 -12 -2 -9 4 6 10 25 14 25 6z m76 -29 c-10 -7 -38 -25 -62 -40 -23 -16
-56 -49 -73 -75 -16 -26 -37 -55 -45 -64 -9 -10 -17 -28 -17 -40 -1 -18 -2
-19 -6 -5 -3 10 4 41 14 69 29 83 125 168 188 167 19 0 19 -1 1 -12z m-165
-14 c13 -16 12 -17 -3 -4 -10 7 -18 15 -18 17 0 8 8 3 21 -13z m664 7 c3 -6
-1 -7 -9 -4 -18 7 -21 14 -7 14 6 0 13 -4 16 -10z m373 -55 c0 -16 -2 -15 -8
5 -4 14 -8 34 -8 45 0 16 2 15 8 -5 4 -14 8 -34 8 -45z m-433 34 c4 -6 5 -13
2 -16 -8 -7 -47 7 -47 18 0 13 37 11 45 -2z m-420 -29 c3 -6 -1 -7 -9 -4 -18
7 -21 14 -7 14 6 0 13 -4 16 -10z m-258 -42 c-3 -8 -6 -5 -6 6 -1 11 2 17 5
13 3 -3 4 -12 1 -19z m-37 -8 c0 -5 -6 -10 -14 -10 -8 0 -18 5 -21 10 -3 6 3
10 14 10 12 0 21 -4 21 -10z m235 -10 c10 -11 16 -20 13 -20 -3 0 -15 9 -28
20 -13 11 -19 20 -13 20 5 0 18 -9 28 -20z m456 -17 c13 -16 12 -17 -3 -4 -17
13 -22 21 -14 21 2 0 10 -8 17 -17z m-191 3 c0 -11 -19 -15 -25 -6 -3 5 1 10
9 10 9 0 16 -2 16 -4z m289 -80 c0 -6 -6 -3 -12 7 -7 10 -20 28 -29 39 -10 12
-18 25 -18 31 0 5 14 -7 30 -28 17 -21 30 -43 29 -49z m-432 58 c-3 -3 -12 -4
-19 -1 -8 3 -5 6 6 6 11 1 17 -2 13 -5z m188 -14 c3 -5 -1 -10 -10 -10 -9 0
-13 5 -10 10 3 6 8 10 10 10 2 0 7 -4 10 -10z m565 0 c0 -5 -2 -10 -4 -10 -3
0 -8 5 -11 10 -3 6 -1 10 4 10 6 0 11 -4 11 -10z m-360 -41 c0 -6 -4 -7 -10
-4 -5 3 -10 11 -10 16 0 6 5 7 10 4 6 -3 10 -11 10 -16z m105 11 c3 -5 1 -10
-4 -10 -6 0 -11 5 -11 10 0 6 2 10 4 10 3 0 8 -4 11 -10z m108 -45 c-3 -9 -8
-14 -10 -11 -3 3 -2 9 2 15 9 16 15 13 8 -4z m120 -49 c3 -30 1 -43 -4 -35 -8
13 -13 97 -5 88 2 -2 6 -26 9 -53z m-926 22 c-3 -8 -6 -5 -6 6 -1 11 2 17 5
13 3 -3 4 -12 1 -19z m376 -5 c-7 -2 -21 -2 -30 0 -10 3 -4 5 12 5 17 0 24 -2
18 -5z m291 -53 c-5 -5 -16 -5 -24 1 -12 9 -12 10 3 5 16 -5 18 -2 13 27 l-6
32 11 -28 c6 -16 7 -33 3 -37z m-704 30 c0 -5 -2 -10 -4 -10 -3 0 -8 5 -11 10
-3 6 -1 10 4 10 6 0 11 -4 11 -10z m167 4 c-3 -3 -12 -4 -19 -1 -8 3 -5 6 6 6
11 1 17 -2 13 -5z m60 0 c-3 -3 -12 -4 -19 -1 -8 3 -5 6 6 6 11 1 17 -2 13 -5z
m136 -1 c-7 -2 -19 -2 -25 0 -7 3 -2 5 12 5 14 0 19 -2 13 -5z m574 -45 c-3
-8 -6 -5 -6 6 -1 11 2 17 5 13 3 -3 4 -12 1 -19z m-362 -29 c163 -22 182 -60
35 -73 -87 -7 -139 -12 -232 -21 -38 -4 -68 -3 -68 1 0 5 -37 9 -82 9 -46 0
-122 6 -170 14 -87 13 -88 13 -88 41 0 27 4 29 48 35 26 4 52 8 57 11 17 6
427 -7 500 -17z m271 -26 c-6 -21 -9 -24 -17 -12 -5 7 -9 19 -9 24 0 6 5 3 10
-5 8 -12 10 -10 10 9 0 13 3 22 6 18 4 -3 3 -18 0 -34z m-86 7 c0 -5 -4 -10
-10 -10 -5 0 -10 5 -10 10 0 6 5 10 10 10 6 0 10 -4 10 -10z m225 0 c3 -5 1
-10 -4 -10 -6 0 -11 5 -11 10 0 6 2 10 4 10 3 0 8 -4 11 -10z m-30 -30 c3 -5
2 -10 -4 -10 -5 0 -13 5 -16 10 -3 6 -2 10 4 10 5 0 13 -4 16 -10z m-1208 -69
c36 -39 66 -62 86 -67 39 -8 47 -19 47 -66 0 -39 -4 -42 -48 -38 -17 1 -26 -7
-37 -34 -22 -51 -18 -120 10 -230 14 -53 25 -100 25 -105 0 -12 -75 -43 -96
-39 -15 2 -22 18 -31 73 -31 186 -46 565 -22 565 6 0 36 -27 66 -59z m1270 27
c-3 -8 -6 -5 -6 6 -1 11 2 17 5 13 3 -3 4 -12 1 -19z m-979 -30 c25 -7 32 -15
32 -35 0 -22 -3 -24 -30 -18 -28 6 -30 5 -30 -23 0 -28 20 -54 51 -65 13 -4
18 -34 28 -149 6 -78 16 -161 21 -183 16 -67 14 -76 -16 -69 -23 6 -25 4 -22
-17 2 -20 8 -23 31 -21 21 2 27 -1 27 -17 0 -11 3 -26 6 -35 7 -18 -21 -21
-88 -10 -34 6 -37 10 -47 53 -6 25 -22 126 -36 223 -14 97 -29 188 -34 201 -5
14 -7 34 -5 45 3 10 -2 43 -10 72 -9 30 -16 57 -16 61 0 10 93 1 138 -13z
m952 3 c0 -4 -13 -8 -29 -7 -16 1 -27 4 -24 9 6 10 53 9 53 -2z m-143 -7 c-3
-3 -12 -4 -19 -1 -8 3 -5 6 6 6 11 1 17 -2 13 -5z m-286 -15 c39 -9 66 -8 104
0 59 13 89 7 80 -18 -4 -9 -11 -43 -15 -76 -4 -33 -14 -73 -23 -90 -24 -49
-60 -170 -55 -186 3 -8 -5 -34 -17 -59 -13 -25 -28 -77 -34 -116 -6 -39 -18
-87 -26 -107 -8 -20 -15 -45 -15 -57 0 -31 -51 -46 -180 -54 -175 -10 -327 16
-358 62 l-14 21 193 -6 c188 -6 331 6 344 27 3 5 -2 15 -11 24 -12 12 -20 14
-36 5 -15 -8 -24 -7 -39 7 -17 16 -19 16 -19 1 0 -15 -15 -17 -118 -17 -145 0
-142 -4 -153 166 -4 68 -14 138 -23 158 -9 22 -18 85 -21 154 -4 64 -8 127
-11 140 l-5 23 181 -2 c99 -1 183 1 187 4 9 10 24 9 84 -4z m-666 -221 c13
-82 35 -244 35 -265 0 -18 -6 -23 -24 -23 -21 0 -27 10 -54 93 -36 106 -47
166 -38 202 5 21 12 25 41 25 31 0 35 -3 40 -32z m787 -330 c-15 -15 -26 -4
-18 18 5 13 9 15 18 6 9 -9 9 -15 0 -24z m71 -40 c20 -31 -5 -73 -93 -160 -84
-83 -201 -168 -300 -218 -55 -28 -152 -62 -158 -55 -7 6 48 93 100 160 56 70
128 90 128 34 0 -27 29 -24 40 5 6 18 24 29 66 43 55 17 58 20 71 67 10 34 29
63 64 98 50 50 65 55 82 26z"/>
<path d="M2127 1283 c8 -27 17 -54 19 -61 8 -28 29 -4 32 37 3 45 -14 70 -49
71 -15 0 -15 -4 -2 -47z"/>
<path d="M2150 1137 c0 -33 27 -56 36 -32 8 19 -5 46 -24 53 -7 2 -12 -6 -12
-21z"/>
<path d="M2480 1400 c0 -5 12 -10 26 -10 14 0 23 4 19 10 -3 6 -15 10 -26 10
-10 0 -19 -4 -19 -10z"/>
<path d="M2360 969 c0 -5 5 -7 10 -4 6 3 10 8 10 11 0 2 -4 4 -10 4 -5 0 -10
-5 -10 -11z"/>
<path d="M796 4263 c-14 -21 -32 -58 -41 -83 -22 -61 -35 -185 -24 -223 14
-49 -6 -53 -26 -5 -18 46 -25 204 -11 267 6 26 5 32 -5 29 -28 -9 -38 -69 -32
-180 3 -60 3 -108 0 -108 -3 0 -16 33 -29 73 l-23 72 -3 -43 c-5 -72 75 -212
122 -212 9 0 30 -22 48 -50 43 -70 64 -66 31 6 -58 128 -54 283 11 421 26 54
31 73 21 73 -8 0 -26 -17 -39 -37z"/>
<path d="M846 4015 c-9 -9 -19 -28 -22 -42 -10 -38 5 -174 21 -189 7 -8 17
-23 20 -34 3 -11 11 -20 16 -20 14 0 11 36 -6 50 -22 18 -29 94 -16 172 6 39
10 73 8 75 -3 2 -12 -3 -21 -12z"/>
<path d="M2600 3888 c0 -6 8 -20 17 -30 17 -19 16 -19 -10 -13 -34 9 -39 -19
-4 -30 20 -7 19 -8 -10 -12 -37 -5 -42 -17 -13 -33 11 -6 20 -15 20 -20 0 -6
-9 -10 -20 -10 -14 0 -20 -7 -20 -21 0 -18 4 -20 33 -14 17 4 53 27 79 51 25
24 58 46 73 50 37 9 28 23 -41 61 -60 33 -104 42 -104 21z"/>
<path d="M1975 304 c-49 -7 -109 -16 -132 -19 -34 -5 -43 -10 -43 -26 0 -15 5
-19 18 -15 57 17 68 17 86 -3 14 -16 23 -18 43 -10 16 6 40 5 70 -3 35 -8 64
-8 122 1 42 7 96 12 121 11 25 0 80 4 124 9 47 6 88 6 102 1 16 -7 52 -4 107
6 65 13 89 14 115 4 22 -8 76 -10 165 -6 72 3 135 6 140 6 10 0 9 22 -2 39 -7
11 -15 11 -41 3 -26 -9 -36 -8 -56 5 -22 14 -35 14 -105 5 -59 -9 -85 -9 -104
0 -19 8 -46 8 -111 -2 -62 -10 -94 -11 -114 -3 -20 7 -46 6 -96 -4 -54 -11
-77 -12 -104 -3 -26 9 -51 9 -94 1 -48 -9 -62 -8 -79 4 -12 8 -26 14 -32 14
-5 -1 -50 -8 -100 -15z"/>
</g>
</svg>
